# xmcd
#
# Track frame offsets: 
#        150
#        19186
#        31981
#        43410
#        53632
#        93510
#        104460
#        129024
#        144476
#        172106
#        176475
#        196922
#
# Disc length: 2864 seconds
#
# Revision: 0
# Processed by: cddbd v1.5.1PL2 Copyright (c) Steve Scherf et al.
# Submitted via: ExactAudioCopy v0.95a5
#
DISCID=a00b2e0c
DTITLE=McCartney, Paul - RAM
DYEAR=1900
DGENRE=Acid
TTITLE0=Too Many People
TTITLE1=3 Legs
TTITLE2=Ram On
TTITLE3=Dear Boy
TTITLE4=Uncle Albert, Smile Away
TTITLE5=Heart Of The Country
TTITLE6=Monkberry Moon Delight
TTITLE7=Eat At Home
TTITLE8=Long Haired Lady
TTITLE9=Ram On Reprise
TTITLE10=Back Seat Of My Car
TTITLE11=Smile Away (Bonus)
EXTD=
EXTT0=
EXTT1=
EXTT2=
EXTT3=
EXTT4=
EXTT5=
EXTT6=
EXTT7=
EXTT8=
EXTT9=
EXTT10=
EXTT11=
PLAYORDER=
